<svg width="16" height="20" viewBox="0 0 16 20" fill="none" xmlns="http://www.w3.org/2000/svg">
<path d="M4.46712 20H0.665314V16.8217H4.46712V20Z" fill="#303031"/>
<path d="M8.26896 15.2326L10.3408 20H14.384L11.0449 12.1147L7.6655 13.6234L8.26896 15.2326Z" fill="#303031"/>
<path d="M12.1914 1.25247C8.77181 -1.02056 4.16539 -0.115377 1.91246 3.28412C1.02739 4.63185 0.645195 6.14051 0.705541 7.64916C0.705541 7.68939 0.685425 7.70951 0.685425 7.74974L0.705541 16.6608C0.705541 17.0833 0.906693 17.4655 1.26877 17.6867C1.63085 17.908 2.05327 17.9683 2.43547 17.8074L10.6627 14.3878C10.7029 14.3677 10.723 14.3476 10.7431 14.3275C12.1512 13.8045 13.3983 12.8792 14.3035 11.5314C16.5565 8.11181 15.611 3.52551 12.1914 1.25247ZM6.72004 9.45954C5.57346 8.69516 5.27173 7.16639 6.016 6.03993C6.78038 4.91347 8.30915 4.61174 9.43561 5.35601C10.5822 6.12039 10.8839 7.64916 10.1397 8.77562C9.39538 9.90208 7.86661 10.2239 6.72004 9.45954Z" fill="#F5A730"/>
</svg>
