<svg width="24" height="24" viewBox="0 0 24 24" fill="none" xmlns="http://www.w3.org/2000/svg">
<path d="M16.6 5.82C16.0269 5.16554 15.6695 4.35522 15.5691 3.49894C15.5369 3.22465 15.3161 3 15.0399 3H12.95C12.6738 3 12.45 3.22386 12.45 3.5V15.4C12.4266 16.0712 12.1435 16.7071 11.6603 17.1735C11.1771 17.6399 10.5316 17.9004 9.85997 17.9C8.43997 17.9 7.25997 16.74 7.25997 15.3C7.25997 13.8056 8.51314 12.6357 9.96344 12.7023C10.2999 12.7177 10.63 12.4784 10.63 12.1416V10.0978C10.63 9.84716 10.444 9.63279 10.1938 9.61825C6.92938 9.42852 4.15997 12.025 4.15997 15.3C4.15997 18.63 6.91997 21 9.84997 21C12.99 21 15.54 18.45 15.54 15.3V9.98466C15.54 9.57739 16.0077 9.33273 16.367 9.52448C17.2853 10.0145 18.299 10.3048 19.3412 10.3739C19.6164 10.3922 19.84 10.1667 19.84 9.89086V7.82451C19.84 7.53898 19.6009 7.30481 19.3178 7.26729C18.6626 7.18044 17.5139 6.87501 16.6 5.82Z" fill="#23283C"/>
</svg>
