<svg width="24" height="24" viewBox="0 0 24 24" fill="none" xmlns="http://www.w3.org/2000/svg">
<rect x="3" y="3" width="9" height="3" stroke="black" stroke-linejoin="round"/>
<rect x="12" y="12" width="9" height="3" stroke="black" stroke-linejoin="round"/>
<rect x="12" y="12" width="9" height="3" transform="rotate(-90 12 12)" stroke="black" stroke-linejoin="round"/>
<rect x="3" y="21" width="9" height="3" transform="rotate(-90 3 21)" stroke="black" stroke-linejoin="round"/>
<rect x="3" y="9" width="9" height="3" stroke="black" stroke-linejoin="round"/>
<rect x="12" y="18" width="9" height="3" stroke="black" stroke-linejoin="round"/>
<rect x="18" y="12" width="9" height="3" transform="rotate(-90 18 12)" stroke="black" stroke-linejoin="round"/>
<rect x="9" y="21" width="9" height="3" transform="rotate(-90 9 21)" stroke="black" stroke-linejoin="round"/>
<rect x="3" y="6" width="9" height="3" stroke="black" stroke-linejoin="round"/>
<rect x="12" y="15" width="9" height="3" stroke="black" stroke-linejoin="round"/>
<rect x="15" y="12" width="9" height="3" transform="rotate(-90 15 12)" stroke="black" stroke-linejoin="round"/>
<rect x="6" y="21" width="9" height="3" transform="rotate(-90 6 21)" stroke="black" stroke-linejoin="round"/>
</svg>
